0
SECTION
2
HEADER
9
$INSUNITS
70
4
9
$ACADVER
1
AC1014
9
$HANDSEED
5
FFFF
0
ENDSEC
0
SECTION
2
TABLES
0
TABLE
2
VPORT
5
8
100
AcDbSymbolTable
0
ENDTAB
0
TABLE
2
LTYPE
5
5
100
AcDbSymbolTable
0
LTYPE
5
14
100
AcDbSymbolTableRecord
100
AcDbLinetypeTableRecord
2
BYBLOCK
70
0
0
LTYPE
5
15
100
AcDbSymbolTableRecord
100
AcDbLinetypeTableRecord
2
BYLAYER
70
0
0
LTYPE
5
16
100
AcDbSymbolTableRecord
100
AcDbLinetypeTableRecord
2
DASHED
70
0
3
Dashed __ __ __ __ __ __ __ __ __ __ __ __ __ _
72
65
73
2
40
0.75
49
0.5
74
0
49
-0.25
74
0
0
ENDTAB
0
TABLE
2
LAYER
5
2
100
AcDbSymbolTable
70
2
0
LAYER
5
50
100
AcDbSymbolTableRecord
100
AcDbLayerTableRecord
2
0
70
0
62
7
6
CONTINUOUS
0
ENDTAB
0
TABLE
2
STYLE
5
3
100
AcDbSymbolTable
70
1
0
STYLE
5
11
100
AcDbSymbolTableRecord
100
AcDbTextStyleTableRecord
2
STANDARD
70
0
0
ENDTAB
0
TABLE
2
VIEW
5
6
100
AcDbSymbolTable
70
0
0
ENDTAB
0
TABLE
2
UCS
5
7
100
AcDbSymbolTable
70
0
0
ENDTAB
0
TABLE
2
APPID
5
9
100
AcDbSymbolTable
70
2
0
APPID
5
12
100
AcDbSymbolTableRecord
100
AcDbRegAppTableRecord
2
ACAD
70
0
0
ENDTAB
0
TABLE
2
DIMSTYLE
5
A
100
AcDbSymbolTable
70
1
0
ENDTAB
0
TABLE
2
BLOCK_RECORD
5
1
100
AcDbSymbolTable
70
1
0
BLOCK_RECORD
5
1F
100
AcDbSymbolTableRecord
100
AcDbBlockTableRecord
2
*MODEL_SPACE
0
BLOCK_RECORD
5
1B
100
AcDbSymbolTableRecord
100
AcDbBlockTableRecord
2
*PAPER_SPACE
0
ENDTAB
0
ENDSEC
0
SECTION
2
BLOCKS
0
BLOCK
5
20
100
AcDbEntity
100
AcDbBlockBegin
2
*MODEL_SPACE
0
ENDBLK
5
21
100
AcDbEntity
100
AcDbBlockEnd
0
BLOCK
5
1C
100
AcDbEntity
100
AcDbBlockBegin
2
*PAPER_SPACE
0
ENDBLK
5
1D
100
AcDbEntity
100
AcDbBlockEnd
0
ENDSEC
0
SECTION
2
ENTITIES
0
LINE
5
100
100
AcDbEntity
8
0
100
AcDbLine
10
-41.380000000000038
20
-50
30
0
11
-41.380000000000038
21
-46.965384615384622
31
0
0
LINE
5
101
100
AcDbEntity
8
0
100
AcDbLine
10
-41.380000000000038
20
-46.965384615384622
30
0
11
-15.620000000000026
21
-46.965384615384622
31
0
0
LINE
5
102
100
AcDbEntity
8
0
100
AcDbLine
10
-15.620000000000026
20
-46.965384615384622
30
0
11
-15.620000000000022
21
-50
31
0
0
LINE
5
103
100
AcDbEntity
8
0
100
AcDbLine
10
-15.620000000000022
20
-50
30
0
11
10.619999999999987
21
-50
31
0
0
LINE
5
104
100
AcDbEntity
8
0
100
AcDbLine
10
10.619999999999987
20
-50
30
0
11
10.61999999999999
21
-46.965384615384622
31
0
0
LINE
5
105
100
AcDbEntity
8
0
100
AcDbLine
10
10.61999999999999
20
-46.965384615384622
30
0
11
36.379999999999988
21
-46.965384615384622
31
0
0
LINE
5
106
100
AcDbEntity
8
0
100
AcDbLine
10
36.379999999999988
20
-46.965384615384622
30
0
11
36.379999999999988
21
-50
31
0
0
LINE
5
107
100
AcDbEntity
8
0
100
AcDbLine
10
36.379999999999988
20
-50
30
0
11
62.499999999999993
21
-50
31
0
0
LINE
5
108
100
AcDbEntity
8
0
100
AcDbLine
10
62.499999999999993
20
-50
30
0
11
62.499999999999993
21
-25.280000000000005
31
0
0
LINE
5
109
100
AcDbEntity
8
0
100
AcDbLine
10
62.499999999999993
20
-25.280000000000005
30
0
11
59.465384615384622
21
-25.280000000000001
31
0
0
LINE
5
110
100
AcDbEntity
8
0
100
AcDbLine
10
59.465384615384622
20
-25.280000000000001
30
0
11
59.465384615384622
21
-0.92000000000000082
31
0
0
LINE
5
111
100
AcDbEntity
8
0
100
AcDbLine
10
59.465384615384622
20
-0.92000000000000082
30
0
11
62.499999999999993
21
-0.9199999999999986
31
0
0
LINE
5
112
100
AcDbEntity
8
0
100
AcDbLine
10
62.499999999999993
20
-0.9199999999999986
30
0
11
62.499999999999993
21
23.919999999999995
31
0
0
LINE
5
113
100
AcDbEntity
8
0
100
AcDbLine
10
62.499999999999993
20
23.919999999999995
30
0
11
59.465384615384622
21
23.919999999999991
31
0
0
LINE
5
114
100
AcDbEntity
8
0
100
AcDbLine
10
59.465384615384622
20
23.919999999999991
30
0
11
59.465384615384622
21
48.280000000000001
31
0
0
LINE
5
115
100
AcDbEntity
8
0
100
AcDbLine
10
59.465384615384622
20
48.280000000000001
30
0
11
62.499999999999993
21
48.280000000000001
31
0
0
LINE
5
116
100
AcDbEntity
8
0
100
AcDbLine
10
62.499999999999993
20
48.280000000000001
30
0
11
62.499999999999993
21
50
31
0
0
LINE
5
117
100
AcDbEntity
8
0
100
AcDbLine
10
-67.500000000000014
20
50
30
0
11
-67.500000000000014
21
48.279999999999994
31
0
0
LINE
5
118
100
AcDbEntity
8
0
100
AcDbLine
10
-67.500000000000014
20
48.279999999999994
30
0
11
-64.364503816793913
21
48.280000000000001
31
0
0
LINE
5
119
100
AcDbEntity
8
0
100
AcDbLine
10
-64.364503816793913
20
48.280000000000001
30
0
11
-64.364503816793913
21
23.919999999999991
31
0
0
LINE
5
120
100
AcDbEntity
8
0
100
AcDbLine
10
-64.364503816793913
20
23.919999999999991
30
0
11
-67.500000000000014
21
23.919999999999995
31
0
0
LINE
5
121
100
AcDbEntity
8
0
100
AcDbLine
10
-67.500000000000014
20
23.919999999999995
30
0
11
-67.500000000000014
21
-0.91999999999999638
31
0
0
LINE
5
122
100
AcDbEntity
8
0
100
AcDbLine
10
-67.500000000000014
20
-0.91999999999999638
30
0
11
-64.364503816793913
21
-0.92000000000000071
31
0
0
LINE
5
123
100
AcDbEntity
8
0
100
AcDbLine
10
-64.364503816793913
20
-0.92000000000000071
30
0
11
-64.364503816793913
21
-25.280000000000001
31
0
0
LINE
5
124
100
AcDbEntity
8
0
100
AcDbLine
10
-64.364503816793913
20
-25.280000000000001
30
0
11
-67.500000000000014
21
-25.280000000000001
31
0
0
LINE
5
125
100
AcDbEntity
8
0
100
AcDbLine
10
-67.500000000000014
20
-25.280000000000001
30
0
11
-67.500000000000014
21
-50
31
0
0
LINE
5
126
100
AcDbEntity
8
0
100
AcDbLine
10
-67.500000000000014
20
-50
30
0
11
-41.380000000000038
21
-50
31
0
0
LINE
5
127
100
AcDbEntity
8
0
100
AcDbLine
10
10.620000000000008
20
69.964603420247741
30
0
11
10.620000000000005
21
73
31
0
0
LINE
5
128
100
AcDbEntity
8
0
100
AcDbLine
10
10.620000000000005
20
73
30
0
11
-15.620000000000005
21
73
31
0
0
LINE
5
129
100
AcDbEntity
8
0
100
AcDbLine
10
-15.620000000000005
20
73
30
0
11
-15.620000000000008
21
69.964603420247741
31
0
0
LINE
5
130
100
AcDbEntity
8
0
100
AcDbLine
10
-15.620000000000008
20
69.964603420247741
30
0
11
-41.38000000000001
21
69.964603420247741
31
0
0
LINE
5
131
100
AcDbEntity
8
0
100
AcDbLine
10
-41.38000000000001
20
69.964603420247741
30
0
11
-41.38000000000001
21
73
31
0
0
LINE
5
132
100
AcDbEntity
8
0
100
AcDbLine
10
-41.38000000000001
20
73
30
0
11
-67.500000000000014
21
73
31
0
0
LINE
5
133
100
AcDbEntity
8
0
100
AcDbLine
10
-67.500000000000014
20
73
30
0
11
-67.500000000000014
21
50
31
0
0
LINE
5
134
100
AcDbEntity
8
0
100
AcDbLine
10
62.499999999999993
20
50
30
0
11
62.499999999999993
21
73
31
0
0
LINE
5
135
100
AcDbEntity
8
0
100
AcDbLine
10
62.499999999999993
20
73
30
0
11
36.38000000000001
21
73
31
0
0
LINE
5
136
100
AcDbEntity
8
0
100
AcDbLine
10
36.38000000000001
20
73
30
0
11
36.38000000000001
21
69.964603420247741
31
0
0
LINE
5
137
100
AcDbEntity
8
0
100
AcDbLine
10
36.38000000000001
20
69.964603420247741
30
0
11
10.620000000000008
21
69.964603420247741
31
0
0
ENDSEC
0
SECTION
2
OBJECTS
0
DICTIONARY
5
C
100
AcDbDictionary
3
ACAD_GROUP
350
D
3
ACAD_MLINESTYLE
350
17
0
DICTIONARY
5
D
100
AcDbDictionary
0
DICTIONARY
5
1A
330
C
100
AcDbDictionary
0
DICTIONARY
5
17
100
AcDbDictionary
0
ENDSEC
0
EOF
