0
SECTION
2
HEADER
9
$INSUNITS
70
4
9
$ACADVER
1
AC1014
9
$HANDSEED
5
FFFF
0
ENDSEC
0
SECTION
2
TABLES
0
TABLE
2
VPORT
5
8
100
AcDbSymbolTable
0
ENDTAB
0
TABLE
2
LTYPE
5
5
100
AcDbSymbolTable
0
LTYPE
5
14
100
AcDbSymbolTableRecord
100
AcDbLinetypeTableRecord
2
BYBLOCK
70
0
0
LTYPE
5
15
100
AcDbSymbolTableRecord
100
AcDbLinetypeTableRecord
2
BYLAYER
70
0
0
LTYPE
5
16
100
AcDbSymbolTableRecord
100
AcDbLinetypeTableRecord
2
DASHED
70
0
3
Dashed __ __ __ __ __ __ __ __ __ __ __ __ __ _
72
65
73
2
40
0.75
49
0.5
74
0
49
-0.25
74
0
0
ENDTAB
0
TABLE
2
LAYER
5
2
100
AcDbSymbolTable
70
2
0
LAYER
5
50
100
AcDbSymbolTableRecord
100
AcDbLayerTableRecord
2
0
70
0
62
7
6
CONTINUOUS
0
ENDTAB
0
TABLE
2
STYLE
5
3
100
AcDbSymbolTable
70
1
0
STYLE
5
11
100
AcDbSymbolTableRecord
100
AcDbTextStyleTableRecord
2
STANDARD
70
0
0
ENDTAB
0
TABLE
2
VIEW
5
6
100
AcDbSymbolTable
70
0
0
ENDTAB
0
TABLE
2
UCS
5
7
100
AcDbSymbolTable
70
0
0
ENDTAB
0
TABLE
2
APPID
5
9
100
AcDbSymbolTable
70
2
0
APPID
5
12
100
AcDbSymbolTableRecord
100
AcDbRegAppTableRecord
2
ACAD
70
0
0
ENDTAB
0
TABLE
2
DIMSTYLE
5
A
100
AcDbSymbolTable
70
1
0
ENDTAB
0
TABLE
2
BLOCK_RECORD
5
1
100
AcDbSymbolTable
70
1
0
BLOCK_RECORD
5
1F
100
AcDbSymbolTableRecord
100
AcDbBlockTableRecord
2
*MODEL_SPACE
0
BLOCK_RECORD
5
1B
100
AcDbSymbolTableRecord
100
AcDbBlockTableRecord
2
*PAPER_SPACE
0
ENDTAB
0
ENDSEC
0
SECTION
2
BLOCKS
0
BLOCK
5
20
100
AcDbEntity
100
AcDbBlockBegin
2
*MODEL_SPACE
0
ENDBLK
5
21
100
AcDbEntity
100
AcDbBlockEnd
0
BLOCK
5
1C
100
AcDbEntity
100
AcDbBlockBegin
2
*PAPER_SPACE
0
ENDBLK
5
1D
100
AcDbEntity
100
AcDbBlockEnd
0
ENDSEC
0
SECTION
2
ENTITIES
0
LWPOLYLINE
5
100
100
AcDbEntity
8
0
100
AcDbPolyline
90
32
70
1
43
0.0
10
62.499999999999993
20
-25.34410256410257
10
59.465384615384622
20
-25.34410256410257
10
59.465384615384622
20
-3.0334615384615393
10
62.499999999999993
20
-3.0334615384615393
10
62.499999999999993
20
-3.0320114008257804
10
36.499999999999993
20
-3.032011400825783
10
36.499999999999993
20
-0.28690729021067618
10
10.499999999999989
20
-0.28690729021067618
10
10.499999999999989
20
-3.032011400825783
10
-15.500000000000007
20
-3.032011400825783
10
-15.500000000000007
20
-0.28690729021067618
10
-41.499999999999993
20
-0.28690729021067618
10
-41.5
20
-3.032011400825783
10
-67.500000000000014
20
-3.032011400825783
10
-67.500000000000014
20
-3.0332061068702121
10
-64.465384615384608
20
-3.0332061068702121
10
-64.465384615384608
20
-25.343932276375007
10
-67.500000000000014
20
-25.343932276375007
10
-67.500000000000014
20
-47.654658445879804
10
-64.465384615384608
20
-47.654658445879804
10
-64.465384615384608
20
-69.965384615384608
10
-41.500000000000014
20
-69.965384615384622
10
-41.500000000000014
20
-73
10
-15.500000000000007
20
-73
10
-15.500000000000007
20
-69.965384615384622
10
10.499999999999989
20
-69.965384615384622
10
10.499999999999989
20
-73
10
36.499999999999993
20
-73
10
36.499999999999993
20
-69.965384615384622
10
59.465384615384622
20
-69.965384615384622
10
59.465384615384622
20
-47.654743589743589
10
62.499999999999993
20
-47.654743589743589
0
ENDSEC
0
SECTION
2
OBJECTS
0
DICTIONARY
5
C
100
AcDbDictionary
3
ACAD_GROUP
350
D
3
ACAD_MLINESTYLE
350
17
0
DICTIONARY
5
D
100
AcDbDictionary
0
DICTIONARY
5
1A
330
C
100
AcDbDictionary
0
DICTIONARY
5
17
100
AcDbDictionary
0
ENDSEC
0
EOF
