0
SECTION
2
HEADER
9
$INSUNITS
70
4
9
$ACADVER
1
AC1014
9
$HANDSEED
5
FFFF
0
ENDSEC
0
SECTION
2
TABLES
0
TABLE
2
VPORT
5
8
100
AcDbSymbolTable
0
ENDTAB
0
TABLE
2
LTYPE
5
5
100
AcDbSymbolTable
0
LTYPE
5
14
100
AcDbSymbolTableRecord
100
AcDbLinetypeTableRecord
2
BYBLOCK
70
0
0
LTYPE
5
15
100
AcDbSymbolTableRecord
100
AcDbLinetypeTableRecord
2
BYLAYER
70
0
0
LTYPE
5
16
100
AcDbSymbolTableRecord
100
AcDbLinetypeTableRecord
2
DASHED
70
0
3
Dashed __ __ __ __ __ __ __ __ __ __ __ __ __ _
72
65
73
2
40
0.75
49
0.5
74
0
49
-0.25
74
0
0
ENDTAB
0
TABLE
2
LAYER
5
2
100
AcDbSymbolTable
70
2
0
LAYER
5
50
100
AcDbSymbolTableRecord
100
AcDbLayerTableRecord
2
0
70
0
62
7
6
CONTINUOUS
0
ENDTAB
0
TABLE
2
STYLE
5
3
100
AcDbSymbolTable
70
1
0
STYLE
5
11
100
AcDbSymbolTableRecord
100
AcDbTextStyleTableRecord
2
STANDARD
70
0
0
ENDTAB
0
TABLE
2
VIEW
5
6
100
AcDbSymbolTable
70
0
0
ENDTAB
0
TABLE
2
UCS
5
7
100
AcDbSymbolTable
70
0
0
ENDTAB
0
TABLE
2
APPID
5
9
100
AcDbSymbolTable
70
2
0
APPID
5
12
100
AcDbSymbolTableRecord
100
AcDbRegAppTableRecord
2
ACAD
70
0
0
ENDTAB
0
TABLE
2
DIMSTYLE
5
A
100
AcDbSymbolTable
70
1
0
ENDTAB
0
TABLE
2
BLOCK_RECORD
5
1
100
AcDbSymbolTable
70
1
0
BLOCK_RECORD
5
1F
100
AcDbSymbolTableRecord
100
AcDbBlockTableRecord
2
*MODEL_SPACE
0
BLOCK_RECORD
5
1B
100
AcDbSymbolTableRecord
100
AcDbBlockTableRecord
2
*PAPER_SPACE
0
ENDTAB
0
ENDSEC
0
SECTION
2
BLOCKS
0
BLOCK
5
20
100
AcDbEntity
100
AcDbBlockBegin
2
*MODEL_SPACE
0
ENDBLK
5
21
100
AcDbEntity
100
AcDbBlockEnd
0
BLOCK
5
1C
100
AcDbEntity
100
AcDbBlockBegin
2
*PAPER_SPACE
0
ENDBLK
5
1D
100
AcDbEntity
100
AcDbBlockEnd
0
ENDSEC
0
SECTION
2
ENTITIES
0
LWPOLYLINE
5
100
100
AcDbEntity
8
0
100
AcDbPolyline
90
4
70
1
43
0.0
10
-34.775966029638383
20
122.02919445235875
10
-34.775966029638383
20
117.02919445235875
10
-48.558725132335582
20
117.02919445235875
10
-48.558725132335582
20
122.02919445235875
0
LWPOLYLINE
5
101
100
AcDbEntity
8
0
100
AcDbPolyline
90
4
70
1
43
0.0
10
12.881933790156399
20
103.25704546982578
10
-13.711168597249905
20
103.25704546982578
10
-13.711168597249905
20
109.22692559761089
10
12.881933790156399
20
109.22692559761089
0
LWPOLYLINE
5
102
100
AcDbEntity
8
0
100
AcDbPolyline
90
4
70
1
43
0.0
10
41.008931597356479
20
108.20158344276254
10
41.008931597356479
20
103.20158344276254
10
28.788573905355026
20
103.20158344276254
10
28.788573905355026
20
108.20158344276254
0
LWPOLYLINE
5
103
100
AcDbEntity
8
0
100
AcDbPolyline
90
36
70
1
43
0.0
10
-64.5
20
132.89879898897692
10
-64.5
20
99.898798988976949
10
-59.499999999999993
20
99.898798988976949
10
-59.499999999999993
20
101.89879898897694
10
-54.499999999999993
20
101.89879898897694
10
-54.499999999999993
20
93.898798988976921
10
-59.499999999999993
20
93.898798988976921
10
-59.499999999999993
20
95.898798988976921
10
-64.5
20
95.898798988976921
10
-64.5
20
80
10
59.500000000000014
20
80
10
59.500000000000014
20
95.898798988976935
10
54.500000000000014
20
95.898798988976935
10
54.500000000000014
20
93.898798988976921
10
49.500000000000014
20
93.898798988976921
10
49.500000000000014
20
101.89879898897694
10
54.500000000000014
20
101.89879898897694
10
54.500000000000014
20
99.898798988976949
10
59.500000000000014
20
99.898798988976949
10
59.500000000000014
20
132.89879898897692
10
54.500000000000014
20
132.89879898897692
10
54.500000000000014
20
130.89879898897695
10
49.500000000000014
20
130.89879898897695
10
49.500000000000014
20
138.89879898897692
10
54.500000000000014
20
138.89879898897692
10
54.500000000000014
20
136.89879898897692
10
59.500000000000014
20
136.89879898897692
10
59.500000000000014
20
147
10
-64.5
20
147
10
-64.5
20
136.89879898897692
10
-59.499999999999993
20
136.89879898897692
10
-59.499999999999993
20
138.89879898897692
10
-54.499999999999993
20
138.89879898897692
10
-54.499999999999993
20
130.89879898897695
10
-59.499999999999993
20
130.89879898897695
10
-59.499999999999993
20
132.89879898897692
0
ENDSEC
0
SECTION
2
OBJECTS
0
DICTIONARY
5
C
100
AcDbDictionary
3
ACAD_GROUP
350
D
3
ACAD_MLINESTYLE
350
17
0
DICTIONARY
5
D
100
AcDbDictionary
0
DICTIONARY
5
1A
330
C
100
AcDbDictionary
0
DICTIONARY
5
17
100
AcDbDictionary
0
ENDSEC
0
EOF
