999
"DXF R12 Output" (www.mydxf.blogspot.com)
 0 
SECTION
 2 
HEADER
 9 
$ACADVER
 1 
AC1009
 9 
$EXTMIN
 10 
 0 
 20 
 0 
 9 
$EXTMAX
 10 
 8.5 
 20 
 11 
 0 
ENDSEC
 0 
SECTION
 2 
ENTITIES
0
POLYLINE
8
0
62
7
70
0
10
0.000000
20
0.000000
66
1
0
VERTEX
8
0
10
90.220734
20
17.937748
70
0
0
VERTEX
8
0
10
90.088035
20
16.006663
70
0
0
VERTEX
8
0
10
152.062158
20
16.006663
70
0
0
VERTEX
8
0
10
152.062158
20
25.746968
70
0
0
VERTEX
8
0
10
148.862161
20
25.746968
70
0
0
VERTEX
8
0
10
148.862161
20
35.746954
70
0
0
VERTEX
8
0
10
152.062158
20
35.746954
70
0
0
VERTEX
8
0
10
152.062158
20
45.746940
70
0
0
VERTEX
8
0
10
148.862161
20
45.746940
70
0
0
VERTEX
8
0
10
148.862161
20
55.746929
70
0
0
VERTEX
8
0
10
152.062158
20
55.746929
70
0
0
VERTEX
8
0
10
152.062158
20
65.746915
70
0
0
VERTEX
8
0
10
148.862161
20
65.746915
70
0
0
VERTEX
8
0
10
148.862161
20
75.746903
70
0
0
VERTEX
8
0
10
152.062158
20
75.746903
70
0
0
VERTEX
8
0
10
152.062158
20
85.746889
70
0
0
VERTEX
8
0
10
148.862161
20
85.746889
70
0
0
VERTEX
8
0
10
148.862161
20
95.746878
70
0
0
VERTEX
8
0
10
152.062158
20
95.746878
70
0
0
VERTEX
8
0
10
152.062158
20
106.006552
70
0
0
VERTEX
8
0
10
94.885528
20
106.006552
70
0
0
VERTEX
8
0
10
94.885528
20
100.737635
70
0
0
VERTEX
8
0
10
86.885538
20
100.737635
70
0
0
VERTEX
8
0
10
86.885538
20
104.040377
70
0
0
VERTEX
8
0
10
91.550335
20
104.040377
70
0
0
VERTEX
8
0
10
91.685444
20
106.006552
70
0
0
VERTEX
8
0
10
29.288190
20
106.006552
70
0
0
VERTEX
8
0
10
29.288190
20
95.746878
70
0
0
VERTEX
8
0
10
32.488186
20
95.746878
70
0
0
VERTEX
8
0
10
32.488186
20
85.746889
70
0
0
VERTEX
8
0
10
29.288190
20
85.746889
70
0
0
VERTEX
8
0
10
29.288190
20
75.746903
70
0
0
VERTEX
8
0
10
32.488186
20
75.746903
70
0
0
VERTEX
8
0
10
32.488186
20
65.746915
70
0
0
VERTEX
8
0
10
29.288190
20
65.746915
70
0
0
VERTEX
8
0
10
29.288190
20
55.746929
70
0
0
VERTEX
8
0
10
32.488186
20
55.746929
70
0
0
VERTEX
8
0
10
32.488186
20
45.746940
70
0
0
VERTEX
8
0
10
29.288190
20
45.746940
70
0
0
VERTEX
8
0
10
29.288190
20
35.746954
70
0
0
VERTEX
8
0
10
32.488186
20
35.746954
70
0
0
VERTEX
8
0
10
32.488186
20
25.746968
70
0
0
VERTEX
8
0
10
29.288190
20
25.746968
70
0
0
VERTEX
8
0
10
29.288190
20
16.006663
70
0
0
VERTEX
8
0
10
86.885538
20
16.006663
70
0
0
VERTEX
8
0
10
86.885538
20
21.240485
70
0
0
VERTEX
8
0
10
94.885528
20
21.240485
70
0
0
VERTEX
8
0
10
94.885528
20
17.937748
70
0
0
VERTEX
8
0
10
90.220734
20
17.937748
70
0
0
SEQEND
8
0
0
POLYLINE
8
0
62
7
70
0
10
0.000000
20
0.000000
66
1
0
VERTEX
8
0
10
67.472319
20
183.866200
70
0
0
VERTEX
8
0
10
67.472319
20
183.965992
70
0
0
VERTEX
8
0
10
117.891617
20
183.965992
70
0
0
VERTEX
8
0
10
117.891617
20
183.866200
70
0
0
VERTEX
8
0
10
67.472319
20
183.866200
70
0
0
SEQEND
8
0
0
POLYLINE
8
0
62
7
70
0
10
0.000000
20
0.000000
66
1
0
VERTEX
8
0
10
30.595430
20
144.993234
70
0
0
VERTEX
8
0
10
153.981860
20
144.993234
70
0
0
SEQEND
8
0
0
POLYLINE
8
0
62
7
70
0
10
0.000000
20
0.000000
66
1
0
VERTEX
8
0
10
30.595430
20
151.662842
70
0
0
VERTEX
8
0
10
30.595430
20
144.993234
70
0
0
SEQEND
8
0
0
POLYLINE
8
0
62
7
70
0
10
0.000000
20
0.000000
66
1
0
VERTEX
8
0
10
33.793709
20
151.662842
70
0
0
VERTEX
8
0
10
30.595430
20
151.662842
70
0
0
SEQEND
8
0
0
POLYLINE
8
0
62
7
70
0
10
0.000000
20
0.000000
66
1
0
VERTEX
8
0
10
33.793709
20
158.325042
70
0
0
VERTEX
8
0
10
33.793709
20
151.662842
70
0
0
SEQEND
8
0
0
POLYLINE
8
0
62
7
70
0
10
0.000000
20
0.000000
66
1
0
VERTEX
8
0
10
30.595430
20
158.325042
70
0
0
VERTEX
8
0
10
33.793709
20
158.325042
70
0
0
SEQEND
8
0
0
POLYLINE
8
0
62
7
70
0
10
0.000000
20
0.000000
66
1
0
VERTEX
8
0
10
30.595430
20
164.993063
70
0
0
VERTEX
8
0
10
30.595430
20
158.325042
70
0
0
SEQEND
8
0
0
POLYLINE
8
0
62
7
70
0
10
0.000000
20
0.000000
66
1
0
VERTEX
8
0
10
67.594929
20
164.993063
70
0
0
VERTEX
8
0
10
67.594929
20
183.724216
70
0
0
SEQEND
8
0
0
POLYLINE
8
0
62
7
70
0
10
0.000000
20
0.000000
66
1
0
VERTEX
8
0
10
117.768993
20
183.724216
70
0
0
VERTEX
8
0
10
117.768993
20
164.993063
70
0
0
SEQEND
8
0
0
POLYLINE
8
0
62
7
70
0
10
0.000000
20
0.000000
66
1
0
VERTEX
8
0
10
67.594929
20
183.724216
70
0
0
VERTEX
8
0
10
117.768993
20
183.724216
70
0
0
SEQEND
8
0
0
POLYLINE
8
0
62
7
70
0
10
0.000000
20
0.000000
66
1
0
VERTEX
8
0
10
154.023929
20
158.369227
70
0
0
VERTEX
8
0
10
154.023929
20
164.993063
70
0
0
SEQEND
8
0
0
POLYLINE
8
0
62
7
70
0
10
0.000000
20
0.000000
66
1
0
VERTEX
8
0
10
150.947887
20
151.701471
70
0
0
VERTEX
8
0
10
150.947887
20
158.369227
70
0
0
SEQEND
8
0
0
POLYLINE
8
0
62
7
70
0
10
0.000000
20
0.000000
66
1
0
VERTEX
8
0
10
150.947887
20
158.369227
70
0
0
VERTEX
8
0
10
154.023929
20
158.369227
70
0
0
SEQEND
8
0
0
POLYLINE
8
0
62
7
70
0
10
0.000000
20
0.000000
66
1
0
VERTEX
8
0
10
154.023929
20
151.701471
70
0
0
VERTEX
8
0
10
150.947887
20
151.701471
70
0
0
SEQEND
8
0
0
POLYLINE
8
0
62
7
70
0
10
0.000000
20
0.000000
66
1
0
VERTEX
8
0
10
154.023929
20
144.993234
70
0
0
VERTEX
8
0
10
154.023929
20
151.701471
70
0
0
SEQEND
8
0
0
POLYLINE
8
0
62
7
70
0
10
0.000000
20
0.000000
66
1
0
VERTEX
8
0
10
67.594929
20
164.993063
70
0
0
VERTEX
8
0
10
30.595430
20
164.993063
70
0
0
SEQEND
8
0
0
POLYLINE
8
0
62
7
70
0
10
0.000000
20
0.000000
66
1
0
VERTEX
8
0
10
117.768993
20
164.993063
70
0
0
VERTEX
8
0
10
154.023929
20
164.993063
70
0
0
SEQEND
8
0
0
POLYLINE
8
0
62
7
70
0
10
0.000000
20
0.000000
66
1
0
VERTEX
8
0
10
-162.210097
20
169.198329
70
0
0
VERTEX
8
0
10
-159.023038
20
169.198329
70
0
0
VERTEX
8
0
10
-159.023038
20
159.198362
70
0
0
VERTEX
8
0
10
-162.210097
20
159.198362
70
0
0
VERTEX
8
0
10
-162.210097
20
149.198368
70
0
0
VERTEX
8
0
10
-159.023038
20
149.198368
70
0
0
VERTEX
8
0
10
-159.023038
20
139.198374
70
0
0
VERTEX
8
0
10
-162.210097
20
139.198374
70
0
0
VERTEX
8
0
10
-162.210097
20
129.198407
70
0
0
VERTEX
8
0
10
-159.023038
20
129.198407
70
0
0
VERTEX
8
0
10
-159.023038
20
119.443708
70
0
0
VERTEX
8
0
10
-101.323111
20
119.443708
70
0
0
VERTEX
8
0
10
-101.323111
20
129.198407
70
0
0
VERTEX
8
0
10
-98.139365
20
129.198407
70
0
0
VERTEX
8
0
10
-98.139365
20
139.198374
70
0
0
VERTEX
8
0
10
-101.323111
20
139.198374
70
0
0
VERTEX
8
0
10
-101.323111
20
149.198368
70
0
0
VERTEX
8
0
10
-98.139365
20
149.198368
70
0
0
VERTEX
8
0
10
-98.139365
20
159.198362
70
0
0
VERTEX
8
0
10
-101.323111
20
159.198362
70
0
0
VERTEX
8
0
10
-101.323111
20
169.198329
70
0
0
VERTEX
8
0
10
-98.139365
20
169.198329
70
0
0
VERTEX
8
0
10
-98.139365
20
179.198323
70
0
0
VERTEX
8
0
10
-101.323111
20
179.198323
70
0
0
VERTEX
8
0
10
-101.323111
20
189.198317
70
0
0
VERTEX
8
0
10
-98.139365
20
189.198317
70
0
0
VERTEX
8
0
10
-98.139365
20
199.198311
70
0
0
VERTEX
8
0
10
-101.323111
20
199.198311
70
0
0
VERTEX
8
0
10
-101.323111
20
209.198278
70
0
0
VERTEX
8
0
10
-98.139365
20
209.198278
70
0
0
VERTEX
8
0
10
-98.139365
20
209.443600
70
0
0
VERTEX
8
0
10
-162.210097
20
209.443600
70
0
0
VERTEX
8
0
10
-162.210097
20
209.198278
70
0
0
VERTEX
8
0
10
-159.023038
20
209.198278
70
0
0
VERTEX
8
0
10
-159.023038
20
199.198311
70
0
0
VERTEX
8
0
10
-162.210097
20
199.198311
70
0
0
VERTEX
8
0
10
-162.210097
20
189.198317
70
0
0
VERTEX
8
0
10
-159.023038
20
189.198317
70
0
0
VERTEX
8
0
10
-159.023038
20
179.198323
70
0
0
VERTEX
8
0
10
-162.210097
20
179.198323
70
0
0
VERTEX
8
0
10
-162.210097
20
169.198329
70
0
0
SEQEND
8
0
 0 
ENDSEC
 0 
EOF