0
SECTION
2
HEADER
9
$INSUNITS
70
4
9
$ACADVER
1
AC1014
9
$HANDSEED
5
FFFF
0
ENDSEC
0
SECTION
2
TABLES
0
TABLE
2
VPORT
5
8
100
AcDbSymbolTable
0
ENDTAB
0
TABLE
2
LTYPE
5
5
100
AcDbSymbolTable
0
LTYPE
5
14
100
AcDbSymbolTableRecord
100
AcDbLinetypeTableRecord
2
BYBLOCK
70
0
0
LTYPE
5
15
100
AcDbSymbolTableRecord
100
AcDbLinetypeTableRecord
2
BYLAYER
70
0
0
LTYPE
5
16
100
AcDbSymbolTableRecord
100
AcDbLinetypeTableRecord
2
DASHED
70
0
3
Dashed __ __ __ __ __ __ __ __ __ __ __ __ __ _
72
65
73
2
40
0.75
49
0.5
74
0
49
-0.25
74
0
0
ENDTAB
0
TABLE
2
LAYER
5
2
100
AcDbSymbolTable
70
2
0
LAYER
5
50
100
AcDbSymbolTableRecord
100
AcDbLayerTableRecord
2
0
70
0
62
7
6
CONTINUOUS
0
ENDTAB
0
TABLE
2
STYLE
5
3
100
AcDbSymbolTable
70
1
0
STYLE
5
11
100
AcDbSymbolTableRecord
100
AcDbTextStyleTableRecord
2
STANDARD
70
0
0
ENDTAB
0
TABLE
2
VIEW
5
6
100
AcDbSymbolTable
70
0
0
ENDTAB
0
TABLE
2
UCS
5
7
100
AcDbSymbolTable
70
0
0
ENDTAB
0
TABLE
2
APPID
5
9
100
AcDbSymbolTable
70
2
0
APPID
5
12
100
AcDbSymbolTableRecord
100
AcDbRegAppTableRecord
2
ACAD
70
0
0
ENDTAB
0
TABLE
2
DIMSTYLE
5
A
100
AcDbSymbolTable
70
1
0
ENDTAB
0
TABLE
2
BLOCK_RECORD
5
1
100
AcDbSymbolTable
70
1
0
BLOCK_RECORD
5
1F
100
AcDbSymbolTableRecord
100
AcDbBlockTableRecord
2
*MODEL_SPACE
0
BLOCK_RECORD
5
1B
100
AcDbSymbolTableRecord
100
AcDbBlockTableRecord
2
*PAPER_SPACE
0
ENDTAB
0
ENDSEC
0
SECTION
2
BLOCKS
0
BLOCK
5
20
100
AcDbEntity
100
AcDbBlockBegin
2
*MODEL_SPACE
0
ENDBLK
5
21
100
AcDbEntity
100
AcDbBlockEnd
0
BLOCK
5
1C
100
AcDbEntity
100
AcDbBlockBegin
2
*PAPER_SPACE
0
ENDBLK
5
1D
100
AcDbEntity
100
AcDbBlockEnd
0
ENDSEC
0
SECTION
2
ENTITIES
0
LWPOLYLINE
5
100
100
AcDbEntity
8
0
100
AcDbPolyline
90
16
70
1
43
0.0
10
61.713635035627576
20
91.373653580640323
10
61.713635035627576
20
98.03606493832325
10
3.187636382440644
20
98.03606493832325
10
3.1876363824406484
20
91.387084652595036
10
0
20
91.387084652595036
10
0
20
84.719348892085662
10
3.1876363824406373
20
84.719348892085662
10
3.1876363824406484
20
78.054348892085642
10
0
20
78.054348892085642
10
0
20
78.03606493832325
10
64.912661492419403
20
78.03606493832325
10
64.912661492419403
20
78.040917820130915
10
61.713635035627576
20
78.040917820130915
10
61.713635035627576
20
84.705917820130935
10
64.912661492419403
20
84.705917820130935
10
64.912661492419403
20
91.373653580640323
0
LINE
5
101
100
AcDbEntity
8
0
100
AcDbLine
10
61.713635035627576
20
78.040917820130915
30
0
11
61.713635035627576
21
84.705917820130935
31
0
0
LINE
5
102
100
AcDbEntity
8
0
100
AcDbLine
10
61.713635035627576
20
84.705917820130935
30
0
11
64.912661492419403
21
84.705917820130935
31
0
0
LINE
5
103
100
AcDbEntity
8
0
100
AcDbLine
10
64.912661492419403
20
91.373653580640323
30
0
11
61.713635035627576
21
91.373653580640323
31
0
0
LINE
5
104
100
AcDbEntity
8
0
100
AcDbLine
10
64.912661492419403
20
84.705917820130935
30
0
11
64.912661492419403
21
91.373653580640323
31
0
0
LINE
5
105
100
AcDbEntity
8
0
100
AcDbLine
10
61.713635035627576
20
91.373653580640323
30
0
11
61.713635035627576
21
98.03606493832325
31
0
0
LINE
5
106
100
AcDbEntity
8
0
100
AcDbLine
10
39.902113589225856
20
98.03606493832325
30
0
11
39.902113589225856
21
116.82276488821563
31
0
0
LINE
5
107
100
AcDbEntity
8
0
100
AcDbLine
10
39.902113589225856
20
116.82276488821563
30
0
11
25.264623444217683
21
116.82276488821563
31
0
0
LINE
5
108
100
AcDbEntity
8
0
100
AcDbLine
10
25.264623444217683
20
116.82276488821563
30
0
11
25.264623444217683
21
98.03606493832325
31
0
0
LINE
5
109
100
AcDbEntity
8
0
100
AcDbLine
10
3.187636382440644
20
98.03606493832325
30
0
11
3.1876363824406484
21
91.387084652595036
31
0
0
LINE
5
110
100
AcDbEntity
8
0
100
AcDbLine
10
3.1876363824406484
20
91.387084652595036
30
0
11
0
21
91.387084652595036
31
0
0
LINE
5
111
100
AcDbEntity
8
0
100
AcDbLine
10
0
20
91.387084652595036
30
0
11
0
21
84.719348892085662
31
0
0
LINE
5
112
100
AcDbEntity
8
0
100
AcDbLine
10
0
20
84.719348892085662
30
0
11
3.1876363824406373
21
84.719348892085662
31
0
0
LINE
5
113
100
AcDbEntity
8
0
100
AcDbLine
10
3.1876363824406373
20
84.719348892085662
30
0
11
3.1876363824406484
21
78.054348892085642
31
0
0
LINE
5
114
100
AcDbEntity
8
0
100
AcDbLine
10
3.187636382440644
20
98.03606493832325
30
0
11
25.264623444217683
21
98.03606493832325
31
0
0
LINE
5
115
100
AcDbEntity
8
0
100
AcDbLine
10
39.902113589225856
20
98.03606493832325
30
0
11
61.713635035627576
21
98.03606493832325
31
0
0
LINE
5
116
100
AcDbEntity
8
0
100
AcDbLine
10
61.713635035627576
20
78.040917820130915
30
0
11
3.1876363824406484
21
78.054348892085642
31
0
0
ENDSEC
0
SECTION
2
OBJECTS
0
DICTIONARY
5
C
100
AcDbDictionary
3
ACAD_GROUP
350
D
3
ACAD_MLINESTYLE
350
17
0
DICTIONARY
5
D
100
AcDbDictionary
0
DICTIONARY
5
1A
330
C
100
AcDbDictionary
0
DICTIONARY
5
17
100
AcDbDictionary
0
ENDSEC
0
EOF
