0
SECTION
2
HEADER
9
$INSUNITS
70
4
9
$ACADVER
1
AC1014
9
$HANDSEED
5
FFFF
0
ENDSEC
0
SECTION
2
TABLES
0
TABLE
2
VPORT
5
8
100
AcDbSymbolTable
0
ENDTAB
0
TABLE
2
LTYPE
5
5
100
AcDbSymbolTable
0
LTYPE
5
14
100
AcDbSymbolTableRecord
100
AcDbLinetypeTableRecord
2
BYBLOCK
70
0
0
LTYPE
5
15
100
AcDbSymbolTableRecord
100
AcDbLinetypeTableRecord
2
BYLAYER
70
0
0
LTYPE
5
16
100
AcDbSymbolTableRecord
100
AcDbLinetypeTableRecord
2
DASHED
70
0
3
Dashed __ __ __ __ __ __ __ __ __ __ __ __ __ _
72
65
73
2
40
0.75
49
0.5
74
0
49
-0.25
74
0
0
ENDTAB
0
TABLE
2
LAYER
5
2
100
AcDbSymbolTable
70
2
0
LAYER
5
50
100
AcDbSymbolTableRecord
100
AcDbLayerTableRecord
2
0
70
0
62
7
6
CONTINUOUS
0
ENDTAB
0
TABLE
2
STYLE
5
3
100
AcDbSymbolTable
70
1
0
STYLE
5
11
100
AcDbSymbolTableRecord
100
AcDbTextStyleTableRecord
2
STANDARD
70
0
0
ENDTAB
0
TABLE
2
VIEW
5
6
100
AcDbSymbolTable
70
0
0
ENDTAB
0
TABLE
2
UCS
5
7
100
AcDbSymbolTable
70
0
0
ENDTAB
0
TABLE
2
APPID
5
9
100
AcDbSymbolTable
70
2
0
APPID
5
12
100
AcDbSymbolTableRecord
100
AcDbRegAppTableRecord
2
ACAD
70
0
0
ENDTAB
0
TABLE
2
DIMSTYLE
5
A
100
AcDbSymbolTable
70
1
0
ENDTAB
0
TABLE
2
BLOCK_RECORD
5
1
100
AcDbSymbolTable
70
1
0
BLOCK_RECORD
5
1F
100
AcDbSymbolTableRecord
100
AcDbBlockTableRecord
2
*MODEL_SPACE
0
BLOCK_RECORD
5
1B
100
AcDbSymbolTableRecord
100
AcDbBlockTableRecord
2
*PAPER_SPACE
0
ENDTAB
0
ENDSEC
0
SECTION
2
BLOCKS
0
BLOCK
5
20
100
AcDbEntity
100
AcDbBlockBegin
2
*MODEL_SPACE
0
ENDBLK
5
21
100
AcDbEntity
100
AcDbBlockEnd
0
BLOCK
5
1C
100
AcDbEntity
100
AcDbBlockBegin
2
*PAPER_SPACE
0
ENDBLK
5
1D
100
AcDbEntity
100
AcDbBlockEnd
0
ENDSEC
0
SECTION
2
ENTITIES
0
CIRCLE
5
100
100
AcDbEntity
8
0
100
AcDbCircle
10
41.693835490026139
20
-10.500000000000275
30
0
40
1.5500000000000025
210
0
220
0
230
1
0
CIRCLE
5
101
100
AcDbEntity
8
0
100
AcDbCircle
10
24.193835490026153
20
-10.500000000000245
30
0
40
1.549999999999998
210
0
220
0
230
1
0
LWPOLYLINE
5
102
100
AcDbEntity
8
0
100
AcDbPolyline
90
4
70
1
43
0.0
10
38.000000566244125
20
6.0000000894069672
10
38.000000566244125
20
-3.0000000447034836
10
28.000000417232513
20
-3.0000000447034836
10
28.000000417232513
20
6.0000000894069672
0
CIRCLE
5
103
100
AcDbEntity
8
0
100
AcDbCircle
10
32.943835490026096
20
-31.000000000000281
30
0
40
3.5000000000000053
210
0
220
-0
230
1
0
LWPOLYLINE
5
104
100
AcDbEntity
8
0
100
AcDbPolyline
90
64
70
1
43
0.0
10
47.666666666666686
20
50
10
47.666666666666686
20
47.5
42
-0.41421356237309503
10
47.166666666666686
20
47
10
25.83333333333335
20
47
42
-0.41421356237309503
10
25.33333333333335
20
47.5
10
25.33333333333335
20
50
10
2.9999999999999982
20
50
10
2.9999999999999991
20
39.388888888888886
42
-0.41421356237309537
10
2.5000000000000004
20
38.888888888888886
10
0
20
38.888888888888886
10
0
20
27.777777777777782
10
2.5000000000000004
20
27.777777777777779
42
-0.41421356237309537
10
3.0000000000000004
20
27.277777777777779
10
3.0000000000000004
20
17.166666666666664
42
-0.4142135623730947
10
2.5000000000000004
20
16.666666666666664
10
0
20
16.666666666666664
10
0
20
5.555555555555558
10
2.5000000000000004
20
5.5555555555555554
42
-0.4142135623730937
10
3.0000000000000004
20
5.0555555555555554
10
3.0000000000000009
20
-5.0555555555555554
42
-0.4142135623730937
10
2.5000000000000004
20
-5.5555555555555554
10
0
20
-5.5555555555555536
10
0
20
-16.666666666666661
10
2.5000000000000004
20
-16.666666666666664
42
-0.4142135623730947
10
3.0000000000000004
20
-17.166666666666664
10
2.9999999999999991
20
-27.277777777777786
42
-0.41421356237309537
10
2.5000000000000004
20
-27.777777777777786
10
0
20
-27.777777777777786
10
0
20
-38.888888888888893
10
2.5000000000000004
20
-38.8888888888889
42
-0.41421356237309537
10
3.0000000000000004
20
-39.388888888888893
10
3.0000000000000004
20
-50
10
25.333333333333332
20
-50
10
25.333333333333332
20
-47.5
42
-0.41421356237309503
10
25.833333333333329
20
-47
10
47.166666666666671
20
-47
42
-0.41421356237309503
10
47.666666666666664
20
-47.5
10
47.666666666666664
20
-50
10
70
20
-50
10
70
20
-39.388888888888886
42
-0.41421356237309503
10
70.5
20
-38.888888888888886
10
73
20
-38.888888888888886
10
73
20
-27.777777777777782
10
70.5
20
-27.777777777777779
42
-0.41421356237309503
10
70
20
-27.277777777777779
10
70
20
-17.166666666666664
42
-0.4142135623730937
10
70.5
20
-16.666666666666664
10
73
20
-16.666666666666664
10
73
20
-5.555555555555558
10
70.5
20
-5.5555555555555518
42
-0.4142135623730937
10
70
20
-5.0555555555555554
10
70
20
5.0555555555555554
42
-0.4142135623730937
10
70.5
20
5.5555555555555554
10
73
20
5.5555555555555536
10
73
20
16.666666666666661
10
70.5
20
16.666666666666668
42
-0.4142135623730937
10
70
20
17.166666666666664
10
70
20
27.277777777777786
42
-0.41421356237309503
10
70.5
20
27.777777777777786
10
73
20
27.777777777777786
10
73
20
38.888888888888893
10
70.5
20
38.8888888888889
42
-0.41421356237309503
10
70
20
39.388888888888893
10
70
20
50
0
ENDSEC
0
SECTION
2
OBJECTS
0
DICTIONARY
5
C
100
AcDbDictionary
3
ACAD_GROUP
350
D
3
ACAD_MLINESTYLE
350
17
0
DICTIONARY
5
D
100
AcDbDictionary
0
DICTIONARY
5
1A
330
C
100
AcDbDictionary
0
DICTIONARY
5
17
100
AcDbDictionary
0
ENDSEC
0
EOF
