0
SECTION
2
HEADER
9
$INSUNITS
70
4
9
$ACADVER
1
AC1014
9
$HANDSEED
5
FFFF
0
ENDSEC
0
SECTION
2
TABLES
0
TABLE
2
VPORT
5
8
100
AcDbSymbolTable
0
ENDTAB
0
TABLE
2
LTYPE
5
5
100
AcDbSymbolTable
0
LTYPE
5
14
100
AcDbSymbolTableRecord
100
AcDbLinetypeTableRecord
2
BYBLOCK
70
0
0
LTYPE
5
15
100
AcDbSymbolTableRecord
100
AcDbLinetypeTableRecord
2
BYLAYER
70
0
0
LTYPE
5
16
100
AcDbSymbolTableRecord
100
AcDbLinetypeTableRecord
2
DASHED
70
0
3
Dashed __ __ __ __ __ __ __ __ __ __ __ __ __ _
72
65
73
2
40
0.75
49
0.5
74
0
49
-0.25
74
0
0
ENDTAB
0
TABLE
2
LAYER
5
2
100
AcDbSymbolTable
70
2
0
LAYER
5
50
100
AcDbSymbolTableRecord
100
AcDbLayerTableRecord
2
0
70
0
62
7
6
CONTINUOUS
0
ENDTAB
0
TABLE
2
STYLE
5
3
100
AcDbSymbolTable
70
1
0
STYLE
5
11
100
AcDbSymbolTableRecord
100
AcDbTextStyleTableRecord
2
STANDARD
70
0
0
ENDTAB
0
TABLE
2
VIEW
5
6
100
AcDbSymbolTable
70
0
0
ENDTAB
0
TABLE
2
UCS
5
7
100
AcDbSymbolTable
70
0
0
ENDTAB
0
TABLE
2
APPID
5
9
100
AcDbSymbolTable
70
2
0
APPID
5
12
100
AcDbSymbolTableRecord
100
AcDbRegAppTableRecord
2
ACAD
70
0
0
ENDTAB
0
TABLE
2
DIMSTYLE
5
A
100
AcDbSymbolTable
70
1
0
ENDTAB
0
TABLE
2
BLOCK_RECORD
5
1
100
AcDbSymbolTable
70
1
0
BLOCK_RECORD
5
1F
100
AcDbSymbolTableRecord
100
AcDbBlockTableRecord
2
*MODEL_SPACE
0
BLOCK_RECORD
5
1B
100
AcDbSymbolTableRecord
100
AcDbBlockTableRecord
2
*PAPER_SPACE
0
ENDTAB
0
ENDSEC
0
SECTION
2
BLOCKS
0
BLOCK
5
20
100
AcDbEntity
100
AcDbBlockBegin
2
*MODEL_SPACE
0
ENDBLK
5
21
100
AcDbEntity
100
AcDbBlockEnd
0
BLOCK
5
1C
100
AcDbEntity
100
AcDbBlockBegin
2
*PAPER_SPACE
0
ENDBLK
5
1D
100
AcDbEntity
100
AcDbBlockEnd
0
ENDSEC
0
SECTION
2
ENTITIES
0
LINE
5
100
100
AcDbEntity
8
0
100
AcDbLine
10
62.499999999999993
20
-50
30
0
11
35.600000000000016
21
-50
31
0
0
LINE
5
101
100
AcDbEntity
8
0
100
AcDbLine
10
35.600000000000016
20
-50
30
0
11
35.600000000000016
21
-47.5
31
0
0
ARC
5
102
100
AcDbEntity
8
0
100
AcDbCircle
10
35.200000000000024
20
-47.5
30
0
40
0.39999999999999147
210
-0
220
0
230
1
100
AcDbArc
50
0
51
90
0
LINE
5
103
100
AcDbEntity
8
0
100
AcDbLine
10
35.200000000000024
20
-47.100000000000001
30
0
11
12.400000000000011
21
-47.100000000000001
31
0
0
ARC
5
104
100
AcDbEntity
8
0
100
AcDbCircle
10
12.400000000000011
20
-47.5
30
0
40
0.40000000000000036
210
0
220
-0
230
1
100
AcDbArc
50
90
51
180
0
LINE
5
105
100
AcDbEntity
8
0
100
AcDbLine
10
12.00000000000002
20
-47.5
30
0
11
12.00000000000002
21
-50
31
0
0
LINE
5
106
100
AcDbEntity
8
0
100
AcDbLine
10
12.00000000000002
20
-50
30
0
11
-11.999999999999984
21
-50
31
0
0
LINE
5
107
100
AcDbEntity
8
0
100
AcDbLine
10
-11.999999999999984
20
-50
30
0
11
-11.999999999999984
21
-47.599999999999994
31
0
0
ARC
5
108
100
AcDbEntity
8
0
100
AcDbCircle
10
-12.499999999999991
20
-47.599999999999994
30
0
40
0.50000000000000711
210
-0
220
0
230
1
100
AcDbArc
50
0
51
90
0
LINE
5
109
100
AcDbEntity
8
0
100
AcDbLine
10
-12.499999999999991
20
-47.100000000000001
30
0
11
-35.099999999999987
21
-47.100000000000001
31
0
0
ARC
5
110
100
AcDbEntity
8
0
100
AcDbCircle
10
-35.09999999999998
20
-47.599999999999994
30
0
40
0.49999999999999822
210
0
220
0
230
1
100
AcDbArc
50
90.00000000000081
51
180
0
LINE
5
111
100
AcDbEntity
8
0
100
AcDbLine
10
-35.59999999999998
20
-47.599999999999994
30
0
11
-35.59999999999998
21
-50
31
0
0
LINE
5
112
100
AcDbEntity
8
0
100
AcDbLine
10
-35.59999999999998
20
-50
30
0
11
-62.499999999999993
21
-50
31
0
0
LINE
5
113
100
AcDbEntity
8
0
100
AcDbLine
10
62.500000000000028
20
49.999999999999972
30
0
11
62.500000000000028
21
38.78888888888887
31
0
0
LINE
5
114
100
AcDbEntity
8
0
100
AcDbLine
10
62.500000000000028
20
38.78888888888887
30
0
11
60.000000000000028
21
38.78888888888887
31
0
0
ARC
5
115
100
AcDbEntity
8
0
100
AcDbCircle
10
60.000000000000028
20
38.388888888888879
30
0
40
0.39999999999999147
210
0
220
-0
230
1
100
AcDbArc
50
90
51
180
0
LINE
5
116
100
AcDbEntity
8
0
100
AcDbLine
10
59.600000000000023
20
38.388888888888879
30
0
11
59.600000000000023
21
28.277777777777761
31
0
0
ARC
5
117
100
AcDbEntity
8
0
100
AcDbCircle
10
60.000000000000028
20
28.277777777777761
30
0
40
0.40000000000000036
210
0
220
0
230
1
100
AcDbArc
50
180
51
270
0
LINE
5
118
100
AcDbEntity
8
0
100
AcDbLine
10
60.000000000000028
20
27.877777777777762
30
0
11
62.500000000000028
21
27.877777777777759
31
0
0
LINE
5
119
100
AcDbEntity
8
0
100
AcDbLine
10
62.500000000000007
20
16.566666666666634
30
0
11
60.000000000000007
21
16.566666666666642
31
0
0
ARC
5
120
100
AcDbEntity
8
0
100
AcDbCircle
10
60.000000000000007
20
16.166666666666643
30
0
40
0.39999999999999591
210
0
220
-0
230
1
100
AcDbArc
50
90
51
180
0
LINE
5
121
100
AcDbEntity
8
0
100
AcDbLine
10
59.600000000000009
20
16.166666666666643
30
0
11
59.600000000000009
21
6.0555555555555252
31
0
0
ARC
5
122
100
AcDbEntity
8
0
100
AcDbCircle
10
60.000000000000007
20
6.0555555555555252
30
0
40
0.40000000000000036
210
0
220
0
230
1
100
AcDbArc
50
180
51
270
0
LINE
5
123
100
AcDbEntity
8
0
100
AcDbLine
10
60.000000000000007
20
5.6555555555555248
30
0
11
62.500000000000007
21
5.6555555555555248
31
0
0
LINE
5
124
100
AcDbEntity
8
0
100
AcDbLine
10
62.500000000000007
20
5.6555555555555248
30
0
11
62.500000000000007
21
-5.655555555555587
31
0
0
LINE
5
125
100
AcDbEntity
8
0
100
AcDbLine
10
62.500000000000007
20
-5.655555555555587
30
0
11
60.000000000000007
21
-5.655555555555587
31
0
0
ARC
5
126
100
AcDbEntity
8
0
100
AcDbCircle
10
60.000000000000007
20
-6.0555555555555785
30
0
40
0.39999999999999147
210
0
220
-0
230
1
100
AcDbArc
50
90
51
180
0
LINE
5
127
100
AcDbEntity
8
0
100
AcDbLine
10
59.600000000000009
20
-6.0555555555555785
30
0
11
59.600000000000009
21
-16.1666666666667
31
0
0
ARC
5
128
100
AcDbEntity
8
0
100
AcDbCircle
10
60.000000000000007
20
-16.1666666666667
30
0
40
0.40000000000000036
210
0
220
0
230
1
100
AcDbArc
50
180
51
270
0
LINE
5
129
100
AcDbEntity
8
0
100
AcDbLine
10
60.000000000000007
20
-16.566666666666691
30
0
11
62.500000000000007
21
-16.566666666666691
31
0
0
LINE
5
130
100
AcDbEntity
8
0
100
AcDbLine
10
62.500000000000007
20
-16.566666666666691
30
0
11
62.499999999999993
21
-27.877777777777808
31
0
0
LINE
5
131
100
AcDbEntity
8
0
100
AcDbLine
10
62.499999999999993
20
-27.877777777777808
30
0
11
59.999999999999993
21
-27.877777777777808
31
0
0
ARC
5
132
100
AcDbEntity
8
0
100
AcDbCircle
10
59.999999999999993
20
-28.2777777777778
30
0
40
0.39999999999999147
210
0
220
-0
230
1
100
AcDbArc
50
90
51
180
0
LINE
5
133
100
AcDbEntity
8
0
100
AcDbLine
10
59.599999999999994
20
-28.2777777777778
30
0
11
59.599999999999994
21
-38.3888888888889
31
0
0
ARC
5
134
100
AcDbEntity
8
0
100
AcDbCircle
10
59.999999999999993
20
-38.3888888888889
30
0
40
0.40000000000000036
210
0
220
0
230
1
100
AcDbArc
50
180
51
270
0
LINE
5
135
100
AcDbEntity
8
0
100
AcDbLine
10
59.999999999999993
20
-38.788888888888913
30
0
11
62.499999999999993
21
-38.788888888888913
31
0
0
LINE
5
136
100
AcDbEntity
8
0
100
AcDbLine
10
62.499999999999993
20
-38.788888888888913
30
0
11
62.499999999999993
21
-50.000000000000014
31
0
0
LINE
5
137
100
AcDbEntity
8
0
100
AcDbLine
10
62.500000000000028
20
27.877777777777759
30
0
11
62.500000000000007
21
16.566666666666634
31
0
0
LINE
5
138
100
AcDbEntity
8
0
100
AcDbLine
10
35.600000000000016
20
50
30
0
11
35.600000000000016
21
47.5
31
0
0
ARC
5
139
100
AcDbEntity
8
0
100
AcDbCircle
10
35.200000000000017
20
47.5
30
0
40
0.40000000000000036
210
-0
220
0
230
1
100
AcDbArc
50
-90
51
0
0
LINE
5
140
100
AcDbEntity
8
0
100
AcDbLine
10
35.200000000000017
20
47.100000000000001
30
0
11
12.400000000000016
21
47.100000000000001
31
0
0
ARC
5
141
100
AcDbEntity
8
0
100
AcDbCircle
10
12.400000000000016
20
47.5
30
0
40
0.40000000000000036
210
0
220
0
230
1
100
AcDbArc
50
180
51
270
0
LINE
5
142
100
AcDbEntity
8
0
100
AcDbLine
10
12.000000000000014
20
47.5
30
0
11
12.00000000000002
21
50
31
0
0
LINE
5
143
100
AcDbEntity
8
0
100
AcDbLine
10
12.00000000000002
20
50
30
0
11
-11.999999999999984
21
50
31
0
0
LINE
5
144
100
AcDbEntity
8
0
100
AcDbLine
10
-11.999999999999984
20
50
30
0
11
-11.999999999999986
21
47.599999999999994
31
0
0
ARC
5
145
100
AcDbEntity
8
0
100
AcDbCircle
10
-12.499999999999986
20
47.599999999999994
30
0
40
0.49999999999999822
210
-0
220
0
230
1
100
AcDbArc
50
-90
51
0
0
LINE
5
146
100
AcDbEntity
8
0
100
AcDbLine
10
-12.499999999999986
20
47.100000000000001
30
0
11
-35.099999999999987
21
47.100000000000001
31
0
0
ARC
5
147
100
AcDbEntity
8
0
100
AcDbCircle
10
-35.099999999999987
20
47.599999999999994
30
0
40
0.49999999999999822
210
0
220
0
230
1
100
AcDbArc
50
180
51
270
0
LINE
5
148
100
AcDbEntity
8
0
100
AcDbLine
10
-35.59999999999998
20
47.599999999999994
30
0
11
-35.59999999999998
21
50
31
0
0
LINE
5
149
100
AcDbEntity
8
0
100
AcDbLine
10
-35.59999999999998
20
50
30
0
11
-62.499999999999993
21
50
31
0
0
LINE
5
150
100
AcDbEntity
8
0
100
AcDbLine
10
-62.499999999999993
20
50
30
0
11
-62.499999999999993
21
38.788888888888891
31
0
0
LINE
5
151
100
AcDbEntity
8
0
100
AcDbLine
10
-62.499999999999993
20
38.788888888888891
30
0
11
-59.999999999999993
21
38.788888888888891
31
0
0
ARC
5
152
100
AcDbEntity
8
0
100
AcDbCircle
10
-59.999999999999993
20
38.3888888888889
30
0
40
0.40000000000000036
210
0
220
0
230
1
100
AcDbArc
50
0
51
90
0
LINE
5
153
100
AcDbEntity
8
0
100
AcDbLine
10
-59.599999999999994
20
38.3888888888889
30
0
11
-59.599999999999994
21
28.277777777777786
31
0
0
ARC
5
154
100
AcDbEntity
8
0
100
AcDbCircle
10
-59.999999999999993
20
28.277777777777786
30
0
40
0.40000000000000036
210
-0
220
0
230
1
100
AcDbArc
50
-90
51
0
0
LINE
5
155
100
AcDbEntity
8
0
100
AcDbLine
10
-59.999999999999993
20
27.877777777777784
30
0
11
-62.499999999999993
21
27.877777777777784
31
0
0
LINE
5
156
100
AcDbEntity
8
0
100
AcDbLine
10
-62.499999999999993
20
27.877777777777784
30
0
11
-62.499999999999993
21
16.566666666666663
31
0
0
LINE
5
157
100
AcDbEntity
8
0
100
AcDbLine
10
-62.499999999999993
20
16.566666666666663
30
0
11
-59.999999999999993
21
16.566666666666659
31
0
0
ARC
5
158
100
AcDbEntity
8
0
100
AcDbCircle
10
-59.999999999999993
20
16.166666666666668
30
0
40
0.40000000000000036
210
0
220
0
230
1
100
AcDbArc
50
0
51
90
0
LINE
5
159
100
AcDbEntity
8
0
100
AcDbLine
10
-59.599999999999994
20
16.166666666666668
30
0
11
-59.599999999999994
21
6.0555555555555518
31
0
0
ARC
5
160
100
AcDbEntity
8
0
100
AcDbCircle
10
-59.999999999999993
20
6.0555555555555518
30
0
40
0.40000000000000036
210
-0
220
0
230
1
100
AcDbArc
50
-90
51
0
0
LINE
5
161
100
AcDbEntity
8
0
100
AcDbLine
10
-59.999999999999993
20
5.6555555555555515
30
0
11
-62.499999999999993
21
5.6555555555555523
31
0
0
LINE
5
162
100
AcDbEntity
8
0
100
AcDbLine
10
-62.499999999999993
20
5.6555555555555523
30
0
11
-62.499999999999993
21
-5.6555555555555594
31
0
0
LINE
5
163
100
AcDbEntity
8
0
100
AcDbLine
10
-62.499999999999993
20
-5.6555555555555594
30
0
11
-59.999999999999993
21
-5.6555555555555586
31
0
0
ARC
5
164
100
AcDbEntity
8
0
100
AcDbCircle
10
-59.999999999999993
20
-6.0555555555555518
30
0
40
0.40000000000000036
210
0
220
0
230
1
100
AcDbArc
50
0
51
90
0
LINE
5
165
100
AcDbEntity
8
0
100
AcDbLine
10
-59.599999999999994
20
-6.0555555555555518
30
0
11
-59.599999999999994
21
-16.166666666666668
31
0
0
ARC
5
166
100
AcDbEntity
8
0
100
AcDbCircle
10
-59.999999999999993
20
-16.166666666666668
30
0
40
0.40000000000000036
210
-0
220
0
230
1
100
AcDbArc
50
-90
51
0
0
LINE
5
167
100
AcDbEntity
8
0
100
AcDbLine
10
-59.999999999999993
20
-16.566666666666666
30
0
11
-62.499999999999993
21
-16.566666666666663
31
0
0
LINE
5
168
100
AcDbEntity
8
0
100
AcDbLine
10
-62.499999999999993
20
-16.566666666666663
30
0
11
-62.499999999999993
21
-27.87777777777778
31
0
0
LINE
5
169
100
AcDbEntity
8
0
100
AcDbLine
10
-62.499999999999993
20
-27.87777777777778
30
0
11
-59.999999999999993
21
-27.87777777777778
31
0
0
ARC
5
170
100
AcDbEntity
8
0
100
AcDbCircle
10
-59.999999999999993
20
-28.277777777777775
30
0
40
0.40000000000000036
210
0
220
0
230
1
100
AcDbArc
50
0
51
90
0
LINE
5
171
100
AcDbEntity
8
0
100
AcDbLine
10
-59.599999999999994
20
-28.277777777777775
30
0
11
-59.599999999999994
21
-38.388888888888893
31
0
0
ARC
5
172
100
AcDbEntity
8
0
100
AcDbCircle
10
-59.999999999999993
20
-38.388888888888893
30
0
40
0.40000000000000036
210
-0
220
0
230
1
100
AcDbArc
50
-90
51
0
0
LINE
5
173
100
AcDbEntity
8
0
100
AcDbLine
10
-59.999999999999993
20
-38.788888888888891
30
0
11
-62.499999999999993
21
-38.788888888888891
31
0
0
LINE
5
174
100
AcDbEntity
8
0
100
AcDbLine
10
-62.499999999999993
20
-38.788888888888891
30
0
11
-62.499999999999993
21
-50
31
0
0
LINE
5
175
100
AcDbEntity
8
0
100
AcDbLine
10
62.499999999999993
20
50
30
0
11
35.600000000000016
21
50
31
0
0
ENDSEC
0
SECTION
2
OBJECTS
0
DICTIONARY
5
C
100
AcDbDictionary
3
ACAD_GROUP
350
D
3
ACAD_MLINESTYLE
350
17
0
DICTIONARY
5
D
100
AcDbDictionary
0
DICTIONARY
5
1A
330
C
100
AcDbDictionary
0
DICTIONARY
5
17
100
AcDbDictionary
0
ENDSEC
0
EOF
