0
SECTION
2
HEADER
9
$INSUNITS
70
4
9
$ACADVER
1
AC1014
9
$HANDSEED
5
FFFF
0
ENDSEC
0
SECTION
2
TABLES
0
TABLE
2
VPORT
5
8
100
AcDbSymbolTable
0
ENDTAB
0
TABLE
2
LTYPE
5
5
100
AcDbSymbolTable
0
LTYPE
5
14
100
AcDbSymbolTableRecord
100
AcDbLinetypeTableRecord
2
BYBLOCK
70
0
0
LTYPE
5
15
100
AcDbSymbolTableRecord
100
AcDbLinetypeTableRecord
2
BYLAYER
70
0
0
LTYPE
5
16
100
AcDbSymbolTableRecord
100
AcDbLinetypeTableRecord
2
DASHED
70
0
3
Dashed __ __ __ __ __ __ __ __ __ __ __ __ __ _
72
65
73
2
40
0.75
49
0.5
74
0
49
-0.25
74
0
0
ENDTAB
0
TABLE
2
LAYER
5
2
100
AcDbSymbolTable
70
2
0
LAYER
5
50
100
AcDbSymbolTableRecord
100
AcDbLayerTableRecord
2
0
70
0
62
7
6
CONTINUOUS
0
ENDTAB
0
TABLE
2
STYLE
5
3
100
AcDbSymbolTable
70
1
0
STYLE
5
11
100
AcDbSymbolTableRecord
100
AcDbTextStyleTableRecord
2
STANDARD
70
0
0
ENDTAB
0
TABLE
2
VIEW
5
6
100
AcDbSymbolTable
70
0
0
ENDTAB
0
TABLE
2
UCS
5
7
100
AcDbSymbolTable
70
0
0
ENDTAB
0
TABLE
2
APPID
5
9
100
AcDbSymbolTable
70
2
0
APPID
5
12
100
AcDbSymbolTableRecord
100
AcDbRegAppTableRecord
2
ACAD
70
0
0
ENDTAB
0
TABLE
2
DIMSTYLE
5
A
100
AcDbSymbolTable
70
1
0
ENDTAB
0
TABLE
2
BLOCK_RECORD
5
1
100
AcDbSymbolTable
70
1
0
BLOCK_RECORD
5
1F
100
AcDbSymbolTableRecord
100
AcDbBlockTableRecord
2
*MODEL_SPACE
0
BLOCK_RECORD
5
1B
100
AcDbSymbolTableRecord
100
AcDbBlockTableRecord
2
*PAPER_SPACE
0
ENDTAB
0
ENDSEC
0
SECTION
2
BLOCKS
0
BLOCK
5
20
100
AcDbEntity
100
AcDbBlockBegin
2
*MODEL_SPACE
0
ENDBLK
5
21
100
AcDbEntity
100
AcDbBlockEnd
0
BLOCK
5
1C
100
AcDbEntity
100
AcDbBlockBegin
2
*PAPER_SPACE
0
ENDBLK
5
1D
100
AcDbEntity
100
AcDbBlockEnd
0
ENDSEC
0
SECTION
2
ENTITIES
0
LWPOLYLINE
5
100
100
AcDbEntity
8
0
100
AcDbPolyline
90
40
70
1
43
0.0
10
59.499999999999993
20
-2.9999999999999982
10
35.699999999999996
20
-2.9999999999999964
42
-0.41421356237310281
10
35.199999999999996
20
-2.4999999999999982
10
35.199999999999996
20
0
10
12.399999999999993
20
0
10
12.399999999999999
20
-2.4999999999999982
42
-0.41421356237309132
10
11.900000000000004
20
-2.9999999999999982
10
-11.899999999999999
20
-2.9999999999999982
42
-0.41421356237309975
10
-12.400000000000004
20
-2.4999999999999982
10
-12.400000000000002
20
0
10
-35.200000000000003
20
0
10
-35.200000000000003
20
-2.4999999999999982
42
-0.41421356237309437
10
-35.699999999999996
20
-2.9999999999999982
10
-59.500000000000014
20
-2.9999999999999982
10
-59.500000000000014
20
-25.333333333333332
42
-0.41421356237309503
10
-60.000000000000007
20
-25.833333333333329
10
-62.499999999999993
20
-25.833333333333329
10
-62.499999999999993
20
-47.166666666666671
10
-60.000000000000007
20
-47.166666666666671
42
-0.41421356237309503
10
-59.500000000000014
20
-47.666666666666664
10
-59.500000000000014
20
-70
10
-35.700000000000017
20
-70
42
-0.41421356237310281
10
-35.200000000000017
20
-70.499999999999986
10
-35.200000000000017
20
-73
10
-12.400000000000011
20
-73
10
-12.400000000000011
20
-70.5
42
-0.41421356237308982
10
-11.900000000000022
20
-70
10
11.899999999999981
20
-70
42
-0.41421356237310153
10
12.399999999999986
20
-70.499999999999986
10
12.399999999999984
20
-73
10
35.199999999999989
20
-73
10
35.199999999999989
20
-70.5
42
-0.41421356237310025
10
35.699999999999974
20
-70
10
59.499999999999993
20
-70
10
59.499999999999993
20
-47.666666666666664
42
-0.41421356237309503
10
59.999999999999993
20
-47.166666666666671
10
62.499999999999993
20
-47.166666666666671
10
62.499999999999993
20
-25.833333333333329
10
59.999999999999993
20
-25.833333333333329
42
-0.41421356237309503
10
59.499999999999993
20
-25.333333333333332
0
ENDSEC
0
SECTION
2
OBJECTS
0
DICTIONARY
5
C
100
AcDbDictionary
3
ACAD_GROUP
350
D
3
ACAD_MLINESTYLE
350
17
0
DICTIONARY
5
D
100
AcDbDictionary
0
DICTIONARY
5
1A
330
C
100
AcDbDictionary
0
DICTIONARY
5
17
100
AcDbDictionary
0
ENDSEC
0
EOF
