0
SECTION
2
HEADER
9
$INSUNITS
70
4
9
$ACADVER
1
AC1014
9
$HANDSEED
5
FFFF
0
ENDSEC
0
SECTION
2
TABLES
0
TABLE
2
VPORT
5
8
100
AcDbSymbolTable
0
ENDTAB
0
TABLE
2
LTYPE
5
5
100
AcDbSymbolTable
0
LTYPE
5
14
100
AcDbSymbolTableRecord
100
AcDbLinetypeTableRecord
2
BYBLOCK
70
0
0
LTYPE
5
15
100
AcDbSymbolTableRecord
100
AcDbLinetypeTableRecord
2
BYLAYER
70
0
0
LTYPE
5
16
100
AcDbSymbolTableRecord
100
AcDbLinetypeTableRecord
2
DASHED
70
0
3
Dashed __ __ __ __ __ __ __ __ __ __ __ __ __ _
72
65
73
2
40
0.75
49
0.5
74
0
49
-0.25
74
0
0
ENDTAB
0
TABLE
2
LAYER
5
2
100
AcDbSymbolTable
70
2
0
LAYER
5
50
100
AcDbSymbolTableRecord
100
AcDbLayerTableRecord
2
0
70
0
62
7
6
CONTINUOUS
0
ENDTAB
0
TABLE
2
STYLE
5
3
100
AcDbSymbolTable
70
1
0
STYLE
5
11
100
AcDbSymbolTableRecord
100
AcDbTextStyleTableRecord
2
STANDARD
70
0
0
ENDTAB
0
TABLE
2
VIEW
5
6
100
AcDbSymbolTable
70
0
0
ENDTAB
0
TABLE
2
UCS
5
7
100
AcDbSymbolTable
70
0
0
ENDTAB
0
TABLE
2
APPID
5
9
100
AcDbSymbolTable
70
2
0
APPID
5
12
100
AcDbSymbolTableRecord
100
AcDbRegAppTableRecord
2
ACAD
70
0
0
ENDTAB
0
TABLE
2
DIMSTYLE
5
A
100
AcDbSymbolTable
70
1
0
ENDTAB
0
TABLE
2
BLOCK_RECORD
5
1
100
AcDbSymbolTable
70
1
0
BLOCK_RECORD
5
1F
100
AcDbSymbolTableRecord
100
AcDbBlockTableRecord
2
*MODEL_SPACE
0
BLOCK_RECORD
5
1B
100
AcDbSymbolTableRecord
100
AcDbBlockTableRecord
2
*PAPER_SPACE
0
ENDTAB
0
ENDSEC
0
SECTION
2
BLOCKS
0
BLOCK
5
20
100
AcDbEntity
100
AcDbBlockBegin
2
*MODEL_SPACE
0
ENDBLK
5
21
100
AcDbEntity
100
AcDbBlockEnd
0
BLOCK
5
1C
100
AcDbEntity
100
AcDbBlockBegin
2
*PAPER_SPACE
0
ENDBLK
5
1D
100
AcDbEntity
100
AcDbBlockEnd
0
ENDSEC
0
SECTION
2
ENTITIES
0
LWPOLYLINE
5
100
100
AcDbEntity
8
0
100
AcDbPolyline
90
4
70
1
43
0.0
10
-32.5
20
-50
10
-32.5
20
-30
10
-25
20
-30
10
-25
20
-50
0
LWPOLYLINE
5
101
100
AcDbEntity
8
0
100
AcDbPolyline
90
4
70
1
43
0.0
10
27.5
20
-50
10
27.5
20
-30
10
35
20
-30
10
35
20
-50
0
LWPOLYLINE
5
102
100
AcDbEntity
8
0
100
AcDbPolyline
90
40
70
1
43
0.0
10
36.200000000000003
20
-70.000000000000014
10
59.5
20
-70
10
59.499999999999993
20
-48.166666666666664
42
-0.41421356237309503
10
59.999999999999993
20
-47.666666666666664
10
62.5
20
-47.666666666666664
10
62.5
20
-25.333333333333332
10
59.999999999999993
20
-25.333333333333332
42
-0.41421356237309503
10
59.499999999999993
20
-24.833333333333336
10
59.499999999999993
20
-2.9999999999999982
10
36.199999999999982
20
-3.0000000000000075
42
-0.41421356237309537
10
35.699999999999982
20
-2.5000000000000089
10
35.699999999999982
20
-7.2164496600635175e-15
10
11.899999999999986
20
-7.2164496600635175e-15
10
11.899999999999984
20
-2.5000000000000089
42
-0.4142135623730947
10
11.399999999999984
20
-3.0000000000000089
10
-11.40000000000002
20
-3.0000000000000089
42
-0.4142135623730947
10
-11.90000000000002
20
-2.5000000000000089
10
-11.900000000000016
20
-7.2164496600635175e-15
10
-35.70000000000001
20
-7.2164496600635175e-15
10
-35.700000000000017
20
-2.5000000000000089
42
-0.41421356237309537
10
-36.200000000000017
20
-3.0000000000000089
10
-59.500000000000014
20
-3.000000000000016
10
-59.500000000000014
20
-24.83333333333335
42
-0.41421356237309764
10
-60
20
-25.33333333333335
10
-62.499999999999986
20
-25.33333333333335
10
-62.499999999999986
20
-47.666666666666686
10
-60
20
-47.666666666666686
42
-0.41421356237310542
10
-59.5
20
-48.166666666666686
10
-59.5
20
-70.000000000000014
10
-36.199999999999989
20
-70.000000000000014
42
-0.41421356237309764
10
-35.699999999999989
20
-70.5
10
-35.699999999999989
20
-72.999999999999986
10
-11.899999999999995
20
-72.999999999999986
10
-11.899999999999993
20
-70.5
42
-0.41421356237309631
10
-11.399999999999991
20
-70.000000000000014
10
11.400000000000009
20
-70.000000000000014
42
-0.41421356237309631
10
11.900000000000011
20
-70.5
10
11.900000000000009
20
-72.999999999999986
10
35.700000000000003
20
-72.999999999999986
10
35.700000000000003
20
-70.5
42
-0.41421356237309764
0
ENDSEC
0
SECTION
2
OBJECTS
0
DICTIONARY
5
C
100
AcDbDictionary
3
ACAD_GROUP
350
D
3
ACAD_MLINESTYLE
350
17
0
DICTIONARY
5
D
100
AcDbDictionary
0
DICTIONARY
5
1A
330
C
100
AcDbDictionary
0
DICTIONARY
5
17
100
AcDbDictionary
0
ENDSEC
0
EOF
