0
SECTION
2
HEADER
9
$INSUNITS
70
4
9
$ACADVER
1
AC1014
9
$HANDSEED
5
FFFF
0
ENDSEC
0
SECTION
2
TABLES
0
TABLE
2
VPORT
5
8
100
AcDbSymbolTable
0
ENDTAB
0
TABLE
2
LTYPE
5
5
100
AcDbSymbolTable
0
LTYPE
5
14
100
AcDbSymbolTableRecord
100
AcDbLinetypeTableRecord
2
BYBLOCK
70
0
0
LTYPE
5
15
100
AcDbSymbolTableRecord
100
AcDbLinetypeTableRecord
2
BYLAYER
70
0
0
LTYPE
5
16
100
AcDbSymbolTableRecord
100
AcDbLinetypeTableRecord
2
DASHED
70
0
3
Dashed __ __ __ __ __ __ __ __ __ __ __ __ __ _
72
65
73
2
40
0.75
49
0.5
74
0
49
-0.25
74
0
0
ENDTAB
0
TABLE
2
LAYER
5
2
100
AcDbSymbolTable
70
2
0
LAYER
5
50
100
AcDbSymbolTableRecord
100
AcDbLayerTableRecord
2
0
70
0
62
7
6
CONTINUOUS
0
ENDTAB
0
TABLE
2
STYLE
5
3
100
AcDbSymbolTable
70
1
0
STYLE
5
11
100
AcDbSymbolTableRecord
100
AcDbTextStyleTableRecord
2
STANDARD
70
0
0
ENDTAB
0
TABLE
2
VIEW
5
6
100
AcDbSymbolTable
70
0
0
ENDTAB
0
TABLE
2
UCS
5
7
100
AcDbSymbolTable
70
0
0
ENDTAB
0
TABLE
2
APPID
5
9
100
AcDbSymbolTable
70
2
0
APPID
5
12
100
AcDbSymbolTableRecord
100
AcDbRegAppTableRecord
2
ACAD
70
0
0
ENDTAB
0
TABLE
2
DIMSTYLE
5
A
100
AcDbSymbolTable
70
1
0
ENDTAB
0
TABLE
2
BLOCK_RECORD
5
1
100
AcDbSymbolTable
70
1
0
BLOCK_RECORD
5
1F
100
AcDbSymbolTableRecord
100
AcDbBlockTableRecord
2
*MODEL_SPACE
0
BLOCK_RECORD
5
1B
100
AcDbSymbolTableRecord
100
AcDbBlockTableRecord
2
*PAPER_SPACE
0
ENDTAB
0
ENDSEC
0
SECTION
2
BLOCKS
0
BLOCK
5
20
100
AcDbEntity
100
AcDbBlockBegin
2
*MODEL_SPACE
0
ENDBLK
5
21
100
AcDbEntity
100
AcDbBlockEnd
0
BLOCK
5
1C
100
AcDbEntity
100
AcDbBlockBegin
2
*PAPER_SPACE
0
ENDBLK
5
1D
100
AcDbEntity
100
AcDbBlockEnd
0
ENDSEC
0
SECTION
2
ENTITIES
0
LINE
5
100
100
AcDbEntity
8
0
100
AcDbLine
10
62.499999999999993
20
-50
30
0
11
62.499999999999993
21
-38.888888888888893
31
0
0
LINE
5
101
100
AcDbEntity
8
0
100
AcDbLine
10
62.499999999999993
20
-38.888888888888893
30
0
11
59.999999999999993
21
-38.8888888888889
31
0
0
ARC
5
102
100
AcDbEntity
8
0
100
AcDbCircle
10
59.999999999999993
20
-38.3888888888889
30
0
40
0.49999999999999822
210
0
220
0
230
1
100
AcDbArc
50
180
51
270
0
LINE
5
103
100
AcDbEntity
8
0
100
AcDbLine
10
59.499999999999993
20
-38.3888888888889
30
0
11
59.499999999999993
21
-28.277777777777786
31
0
0
ARC
5
104
100
AcDbEntity
8
0
100
AcDbCircle
10
59.999999999999993
20
-28.277777777777786
30
0
40
0.49999999999999822
210
0
220
-0
230
1
100
AcDbArc
50
90
51
180
0
LINE
5
105
100
AcDbEntity
8
0
100
AcDbLine
10
59.999999999999993
20
-27.777777777777786
30
0
11
62.499999999999993
21
-27.777777777777786
31
0
0
LINE
5
106
100
AcDbEntity
8
0
100
AcDbLine
10
62.499999999999993
20
-27.777777777777786
30
0
11
62.499999999999993
21
-16.61666666666666
31
0
0
LINE
5
107
100
AcDbEntity
8
0
100
AcDbLine
10
62.499999999999993
20
-16.61666666666666
30
0
11
59.999999999999993
21
-16.61666666666666
31
0
0
ARC
5
108
100
AcDbEntity
8
0
100
AcDbCircle
10
59.999999999999993
20
-16.166666666666668
30
0
40
0.44999999999999929
210
0
220
0
230
1
100
AcDbArc
50
180
51
270
0
LINE
5
109
100
AcDbEntity
8
0
100
AcDbLine
10
59.54999999999999
20
-16.166666666666668
30
0
11
59.54999999999999
21
-6.0555555555555518
31
0
0
ARC
5
110
100
AcDbEntity
8
0
100
AcDbCircle
10
59.999999999999993
20
-6.0555555555555518
30
0
40
0.4500000000000004
210
0
220
-0
230
1
100
AcDbArc
50
90
51
180
0
LINE
5
111
100
AcDbEntity
8
0
100
AcDbLine
10
59.999999999999993
20
-5.6055555555555516
30
0
11
62.499999999999993
21
-5.6055555555555525
31
0
0
LINE
5
112
100
AcDbEntity
8
0
100
AcDbLine
10
62.499999999999993
20
-5.6055555555555525
30
0
11
62.499999999999993
21
5.6255555555555592
31
0
0
LINE
5
113
100
AcDbEntity
8
0
100
AcDbLine
10
62.499999999999993
20
5.6255555555555592
30
0
11
59.999999999999993
21
5.6255555555555583
31
0
0
ARC
5
114
100
AcDbEntity
8
0
100
AcDbCircle
10
59.999999999999993
20
6.0555555555555518
30
0
40
0.43000000000000149
210
0
220
0
230
1
100
AcDbArc
50
180
51
270
0
LINE
5
115
100
AcDbEntity
8
0
100
AcDbLine
10
59.569999999999993
20
6.0555555555555518
30
0
11
59.569999999999993
21
16.166666666666668
31
0
0
ARC
5
116
100
AcDbEntity
8
0
100
AcDbCircle
10
59.999999999999993
20
16.166666666666668
30
0
40
0.42999999999999927
210
0
220
-0
230
1
100
AcDbArc
50
90
51
180
0
LINE
5
117
100
AcDbEntity
8
0
100
AcDbLine
10
59.999999999999993
20
16.596666666666668
30
0
11
62.499999999999993
21
16.596666666666664
31
0
0
LINE
5
118
100
AcDbEntity
8
0
100
AcDbLine
10
62.499999999999993
20
16.596666666666664
30
0
11
62.499999999999993
21
27.87777777777778
31
0
0
LINE
5
119
100
AcDbEntity
8
0
100
AcDbLine
10
62.499999999999993
20
27.87777777777778
30
0
11
59.999999999999993
21
27.87777777777778
31
0
0
ARC
5
120
100
AcDbEntity
8
0
100
AcDbCircle
10
59.999999999999993
20
28.277777777777775
30
0
40
0.40000000000000036
210
0
220
0
230
1
100
AcDbArc
50
180
51
270
0
LINE
5
121
100
AcDbEntity
8
0
100
AcDbLine
10
59.599999999999994
20
28.277777777777775
30
0
11
59.599999999999994
21
38.388888888888893
31
0
0
ARC
5
122
100
AcDbEntity
8
0
100
AcDbCircle
10
59.999999999999993
20
38.388888888888893
30
0
40
0.40000000000000036
210
0
220
-0
230
1
100
AcDbArc
50
90
51
180
0
LINE
5
123
100
AcDbEntity
8
0
100
AcDbLine
10
59.999999999999993
20
38.788888888888891
30
0
11
62.499999999999993
21
38.788888888888891
31
0
0
LINE
5
124
100
AcDbEntity
8
0
100
AcDbLine
10
62.499999999999993
20
38.788888888888891
30
0
11
62.499999999999993
21
50
31
0
0
LINE
5
125
100
AcDbEntity
8
0
100
AcDbLine
10
62.499999999999993
20
50
30
0
11
40
21
50
31
0
0
LINE
5
126
100
AcDbEntity
8
0
100
AcDbLine
10
40
20
50
30
0
11
40
21
42.904200864460492
31
0
0
LINE
5
127
100
AcDbEntity
8
0
100
AcDbLine
10
40
20
42.904200864460492
30
0
11
43.000000640749931
21
42.904200864460492
31
0
0
LINE
5
128
100
AcDbEntity
8
0
100
AcDbLine
10
43.000000640749931
20
42.904200864460492
30
0
11
43.000000640749931
21
32.000000476837158
31
0
0
LINE
5
129
100
AcDbEntity
8
0
100
AcDbLine
10
43.000000640749931
20
32.000000476837158
30
0
11
40.000000640749931
21
32.000000476837158
31
0
0
LINE
5
130
100
AcDbEntity
8
0
100
AcDbLine
10
40.000000640749931
20
32.000000476837158
30
0
11
40.000000640749931
21
-50
31
0
0
LINE
5
131
100
AcDbEntity
8
0
100
AcDbLine
10
40.000000640749931
20
-50
30
0
11
62.499999999999993
21
-50
31
0
0
ENDSEC
0
SECTION
2
OBJECTS
0
DICTIONARY
5
C
100
AcDbDictionary
3
ACAD_GROUP
350
D
3
ACAD_MLINESTYLE
350
17
0
DICTIONARY
5
D
100
AcDbDictionary
0
DICTIONARY
5
1A
330
C
100
AcDbDictionary
0
DICTIONARY
5
17
100
AcDbDictionary
0
ENDSEC
0
EOF
