0
SECTION
2
HEADER
9
$INSUNITS
70
4
9
$ACADVER
1
AC1014
9
$HANDSEED
5
FFFF
0
ENDSEC
0
SECTION
2
TABLES
0
TABLE
2
VPORT
5
8
100
AcDbSymbolTable
0
ENDTAB
0
TABLE
2
LTYPE
5
5
100
AcDbSymbolTable
0
LTYPE
5
14
100
AcDbSymbolTableRecord
100
AcDbLinetypeTableRecord
2
BYBLOCK
70
0
0
LTYPE
5
15
100
AcDbSymbolTableRecord
100
AcDbLinetypeTableRecord
2
BYLAYER
70
0
0
LTYPE
5
16
100
AcDbSymbolTableRecord
100
AcDbLinetypeTableRecord
2
DASHED
70
0
3
Dashed __ __ __ __ __ __ __ __ __ __ __ __ __ _
72
65
73
2
40
0.75
49
0.5
74
0
49
-0.25
74
0
0
ENDTAB
0
TABLE
2
LAYER
5
2
100
AcDbSymbolTable
70
2
0
LAYER
5
50
100
AcDbSymbolTableRecord
100
AcDbLayerTableRecord
2
0
70
0
62
7
6
CONTINUOUS
0
ENDTAB
0
TABLE
2
STYLE
5
3
100
AcDbSymbolTable
70
1
0
STYLE
5
11
100
AcDbSymbolTableRecord
100
AcDbTextStyleTableRecord
2
STANDARD
70
0
0
ENDTAB
0
TABLE
2
VIEW
5
6
100
AcDbSymbolTable
70
0
0
ENDTAB
0
TABLE
2
UCS
5
7
100
AcDbSymbolTable
70
0
0
ENDTAB
0
TABLE
2
APPID
5
9
100
AcDbSymbolTable
70
2
0
APPID
5
12
100
AcDbSymbolTableRecord
100
AcDbRegAppTableRecord
2
ACAD
70
0
0
ENDTAB
0
TABLE
2
DIMSTYLE
5
A
100
AcDbSymbolTable
70
1
0
ENDTAB
0
TABLE
2
BLOCK_RECORD
5
1
100
AcDbSymbolTable
70
1
0
BLOCK_RECORD
5
1F
100
AcDbSymbolTableRecord
100
AcDbBlockTableRecord
2
*MODEL_SPACE
0
BLOCK_RECORD
5
1B
100
AcDbSymbolTableRecord
100
AcDbBlockTableRecord
2
*PAPER_SPACE
0
ENDTAB
0
ENDSEC
0
SECTION
2
BLOCKS
0
BLOCK
5
20
100
AcDbEntity
100
AcDbBlockBegin
2
*MODEL_SPACE
0
ENDBLK
5
21
100
AcDbEntity
100
AcDbBlockEnd
0
BLOCK
5
1C
100
AcDbEntity
100
AcDbBlockBegin
2
*PAPER_SPACE
0
ENDBLK
5
1D
100
AcDbEntity
100
AcDbBlockEnd
0
ENDSEC
0
SECTION
2
ENTITIES
0
LINE
5
100
100
AcDbEntity
8
0
100
AcDbLine
10
2.9999999999999982
20
50
30
0
11
3.0000000000000004
21
39.388888888888886
31
0
0
ARC
5
101
100
AcDbEntity
8
0
100
AcDbCircle
10
2.5000000000000009
20
39.388888888888886
30
0
40
0.49999999999999822
210
0
220
0
230
1
100
AcDbArc
50
-90.000000000000057
51
0
0
LINE
5
102
100
AcDbEntity
8
0
100
AcDbLine
10
2.5000000000000004
20
38.888888888888886
30
0
11
0
21
38.888888888888886
31
0
0
LINE
5
103
100
AcDbEntity
8
0
100
AcDbLine
10
0
20
38.888888888888886
30
0
11
0
21
27.777777777777782
31
0
0
LINE
5
104
100
AcDbEntity
8
0
100
AcDbLine
10
0
20
27.777777777777782
30
0
11
2.5000000000000004
21
27.777777777777779
31
0
0
ARC
5
105
100
AcDbEntity
8
0
100
AcDbCircle
10
2.5000000000000009
20
27.277777777777779
30
0
40
0.49999999999999933
210
0
220
0
230
1
100
AcDbArc
50
0
51
90.000000000000057
0
LINE
5
106
100
AcDbEntity
8
0
100
AcDbLine
10
3.0000000000000004
20
27.277777777777779
30
0
11
3.0000000000000004
21
17.166666666666664
31
0
0
ARC
5
107
100
AcDbEntity
8
0
100
AcDbCircle
10
2.5
20
17.166666666666664
30
0
40
0.50000000000000044
210
0
220
0
230
1
100
AcDbArc
50
-89.999999999999943
51
0
0
LINE
5
108
100
AcDbEntity
8
0
100
AcDbLine
10
2.5000000000000004
20
16.666666666666664
30
0
11
0
21
16.666666666666664
31
0
0
LINE
5
109
100
AcDbEntity
8
0
100
AcDbLine
10
0
20
16.666666666666664
30
0
11
0
21
5.555555555555558
31
0
0
LINE
5
110
100
AcDbEntity
8
0
100
AcDbLine
10
0
20
5.555555555555558
30
0
11
2.5000000000000004
21
5.5555555555555536
31
0
0
ARC
5
111
100
AcDbEntity
8
0
100
AcDbCircle
10
2.4999999999999996
20
5.0555555555555545
30
0
40
0.500000000000001
210
0
220
-0
230
1
100
AcDbArc
50
0
51
89.999999999999901
0
LINE
5
112
100
AcDbEntity
8
0
100
AcDbLine
10
3.0000000000000004
20
5.0555555555555554
30
0
11
3.0000000000000004
21
-5.0555555555555554
31
0
0
ARC
5
113
100
AcDbEntity
8
0
100
AcDbCircle
10
2.4999999999999996
20
-5.0555555555555545
30
0
40
0.50000000000000155
210
0
220
0
230
1
100
AcDbArc
50
270.00000000000011
51
360
0
LINE
5
114
100
AcDbEntity
8
0
100
AcDbLine
10
2.5000000000000004
20
-5.5555555555555554
30
0
11
0
21
-5.5555555555555536
31
0
0
LINE
5
115
100
AcDbEntity
8
0
100
AcDbLine
10
0
20
-5.5555555555555536
30
0
11
0
21
-16.666666666666661
31
0
0
LINE
5
116
100
AcDbEntity
8
0
100
AcDbLine
10
0
20
-16.666666666666661
30
0
11
2.5000000000000004
21
-16.666666666666664
31
0
0
ARC
5
117
100
AcDbEntity
8
0
100
AcDbCircle
10
2.5
20
-17.166666666666664
30
0
40
0.50000000000000044
210
0
220
0
230
1
100
AcDbArc
50
0
51
89.999999999999943
0
LINE
5
118
100
AcDbEntity
8
0
100
AcDbLine
10
3.0000000000000004
20
-17.166666666666664
30
0
11
3.0000000000000004
21
-27.277777777777786
31
0
0
ARC
5
119
100
AcDbEntity
8
0
100
AcDbCircle
10
2.5000000000000009
20
-27.277777777777786
30
0
40
0.49999999999999822
210
0
220
0
230
1
100
AcDbArc
50
-90.000000000000057
51
0
0
LINE
5
120
100
AcDbEntity
8
0
100
AcDbLine
10
2.5000000000000004
20
-27.777777777777786
30
0
11
0
21
-27.777777777777786
31
0
0
LINE
5
121
100
AcDbEntity
8
0
100
AcDbLine
10
0
20
-27.777777777777786
30
0
11
0
21
-38.888888888888893
31
0
0
LINE
5
122
100
AcDbEntity
8
0
100
AcDbLine
10
0
20
-38.888888888888893
30
0
11
2.5000000000000004
21
-38.8888888888889
31
0
0
ARC
5
123
100
AcDbEntity
8
0
100
AcDbCircle
10
2.5000000000000009
20
-39.388888888888893
30
0
40
0.49999999999999933
210
0
220
0
230
1
100
AcDbArc
50
0
51
90.000000000000057
0
LINE
5
124
100
AcDbEntity
8
0
100
AcDbLine
10
3.0000000000000004
20
-39.388888888888893
30
0
11
3.0000000000000004
21
-50
31
0
0
LINE
5
125
100
AcDbEntity
8
0
100
AcDbLine
10
2.9999999999999982
20
50
30
0
11
18.000000268220901
21
50
31
0
0
LINE
5
126
100
AcDbEntity
8
0
100
AcDbLine
10
18.000000268220901
20
50
30
0
11
18.000000268220901
21
44.000000655651093
31
0
0
LINE
5
127
100
AcDbEntity
8
0
100
AcDbLine
10
18.000000268220901
20
44.000000655651093
30
0
11
17.00000025331974
21
44.000000655651093
31
0
0
LINE
5
128
100
AcDbEntity
8
0
100
AcDbLine
10
17.00000025331974
20
44.000000655651093
30
0
11
17.00000025331974
21
41.000000610947609
31
0
0
LINE
5
129
100
AcDbEntity
8
0
100
AcDbLine
10
17.00000025331974
20
41.000000610947609
30
0
11
18.000000268220901
21
41.000000610947609
31
0
0
LINE
5
130
100
AcDbEntity
8
0
100
AcDbLine
10
18.000000268220901
20
41.000000610947609
30
0
11
18.000000268220901
21
39.000000581145287
31
0
0
LINE
5
131
100
AcDbEntity
8
0
100
AcDbLine
10
18.000000268220901
20
39.000000581145287
30
0
11
17.500000260770321
21
39.000000581145287
31
0
0
LINE
5
132
100
AcDbEntity
8
0
100
AcDbLine
10
17.500000260770321
20
39.000000581145287
30
0
11
17.500000260770321
21
36.000000536441803
31
0
0
LINE
5
133
100
AcDbEntity
8
0
100
AcDbLine
10
17.500000260770321
20
36.000000536441803
30
0
11
18.000000268220901
21
36.000000536441803
31
0
0
LINE
5
134
100
AcDbEntity
8
0
100
AcDbLine
10
18.000000268220901
20
36.000000536441803
30
0
11
18.000000268220901
21
-50
31
0
0
LINE
5
135
100
AcDbEntity
8
0
100
AcDbLine
10
18.000000268220901
20
-50
30
0
11
3.0000000000000004
21
-50
31
0
0
ENDSEC
0
SECTION
2
OBJECTS
0
DICTIONARY
5
C
100
AcDbDictionary
3
ACAD_GROUP
350
D
3
ACAD_MLINESTYLE
350
17
0
DICTIONARY
5
D
100
AcDbDictionary
0
DICTIONARY
5
1A
330
C
100
AcDbDictionary
0
DICTIONARY
5
17
100
AcDbDictionary
0
ENDSEC
0
EOF
